HIERARCHY
ROOT Hips
{
    OFFSET 0.000000 0.000000 0.000000
    CHANNELS 6 Xposition Yposition Zposition Zrotation Xrotation Yrotation
        JOINT Chest
        {
            OFFSET -0.000000 30.833075 -0.000000
            CHANNELS 3 Zrotation Xrotation Yrotation
            JOINT Neck
            {
                OFFSET -0.000000 23.115997 0.000000
                CHANNELS 3 Zrotation Xrotation Yrotation
                JOINT Head
                {
                    OFFSET -0.000000 10.266666 0.000000
                    CHANNELS 3 Zrotation Xrotation Yrotation
                    End Site
                    {
                        OFFSET -0.000000 15.866669 0.000000
                    }
                }
            }
            JOINT LeftCollar
            {
                OFFSET -0.000000 23.115997 0.000000
                CHANNELS 3 Zrotation Xrotation Yrotation
                JOINT LeftShoulder
                {
                    OFFSET 18.666668 -0.000000 0.000000
                    CHANNELS 3 Zrotation Xrotation Yrotation
                    JOINT LeftElbow
                    {
                        OFFSET 25.298601 0.000000 0.000000
                        CHANNELS 3 Zrotation Xrotation Yrotation
                        JOINT LeftWrist
                        {
                            OFFSET 27.056377 0.000000 0.000000
                            CHANNELS 3 Zrotation Xrotation Yrotation
                            End Site
                            {
                                OFFSET 0.000000 -14.000002 0.000000
                            }
                        }
                    }
                }
            }
            JOINT RightCollar
            {
                OFFSET -0.000000 23.115997 0.000000
                CHANNELS 3 Zrotation Xrotation Yrotation
                JOINT RightShoulder
                {
                    OFFSET -18.666668 0.000000 0.000000
                    CHANNELS 3 Zrotation Xrotation Yrotation
                    JOINT RightElbow
                    {
                        OFFSET -25.298601 0.000000 0.000000
                        CHANNELS 3 Zrotation Xrotation Yrotation
                        JOINT RightWrist
                        {
                            OFFSET -27.056377 0.000000 0.000000
                            CHANNELS 3 Zrotation Xrotation Yrotation
                            End Site
                            {
                                OFFSET -0.000000 -14.000002 0.000000
                            }
                        }
                    }
                }
            }
        }
    JOINT LeftHip
    {
        OFFSET 11.200000 0.000000 0.000000
        CHANNELS 3 Zrotation Xrotation Yrotation
        JOINT LeftKnee
        {
            OFFSET -0.000000 -43.871983 0.000000
            CHANNELS 3 Zrotation Xrotation Yrotation
            JOINT LeftAnkle
            {
                OFFSET -0.000000 -44.488350 0.000000
                CHANNELS 3 Zrotation Xrotation Yrotation
                End Site
                {
                    OFFSET -0.000000 -4.666667 15.866669
                }
            }
        }
    }
    JOINT RightHip
    {
        OFFSET -11.200000 0.000000 0.000000
        CHANNELS 3 Zrotation Xrotation Yrotation
        JOINT RightKnee
        {
            OFFSET -0.000000 -43.871983 0.000000
            CHANNELS 3 Zrotation Xrotation Yrotation
            JOINT RightAnkle
            {
                OFFSET -0.000000 -44.488350 0.000000
                CHANNELS 3 Zrotation Xrotation Yrotation
                End Site
                {
                    OFFSET -0.000000 -4.666667 15.866669
                }
            }
        }
    }
}
MOTION
Frames:    16
Frame Time:    0.010000
12.629708    91.979866    -4.717263    4.440490    -1.427120    171.625992    1.448789    -5.302001    1.912560    0.000000    0.000000    0.000000    0.000000    0.000000    0.000000    -7.527597    0.135586    -1.635668    -9.816313    9.348269    -0.570044    15.582557    -1.056811    -7.856100    115.086700    1.954896    -1.097535    14.727207    1.006615    7.992908    4.408785    -11.016095    -16.912804    -15.833407    -3.308937    23.275381    -102.794792    9.183674    7.933286    2.647259    11.087863    17.708132    -3.655505    -4.288233    7.876639    -3.935014    0.784073    4.241287    6.761690    12.306102    4.800185    1.495282    -6.481588    3.196224    -7.631208    -7.725809    -18.947836    
12.620619    91.984032    -4.715809    4.442641    -1.419433    171.640182    1.256570    -5.398370    1.892759    9.163543    47.022720    -29.354921    34.398525    -49.516769    -26.303114    -7.335449    0.156311    -2.698280    -9.792600    9.656679    -0.315452    15.658407    -1.095546    -7.897633    115.090866    2.141110    -1.217896    15.049432    0.996760    7.192904    4.284070    -11.076457    -17.046509    -15.757324    -3.245801    23.281912    -102.950592    9.210331    7.773169    2.639997    11.118282    17.659973    -3.684499    -4.338139    7.918345    -3.781309    0.786984    4.256574    6.753850    12.333723    4.872947    1.505106    -6.543435    3.084503    -7.525314    -7.686302    -18.973993    
12.607423    91.985229    -4.703919    4.435871    -1.445414    171.649338    1.282581    -5.464900    1.915459    9.119501    47.049469    -29.396845    24.360559    -46.753986    -14.806429    -7.377697    0.186313    -2.705604    -9.726042    9.473218    -0.291095    15.584471    -1.085253    -7.955419    114.971504    2.033996    -1.426571    14.988863    0.949214    7.236177    4.315927    -11.100384    -17.091618    -15.776580    -3.275616    23.309153    -102.779602    9.210562    7.905535    2.620556    11.064346    17.629171    -3.666124    -4.325968    8.038502    -3.927009    0.768460    4.216511    6.742179    12.278946    4.827603    1.514810    -6.481704    3.197587    -7.620014    -7.724831    -19.006821    
12.589664    91.981972    -4.692472    4.420762    -1.458834    171.642395    1.289147    -5.480418    1.947959    9.401437    47.132256    -29.522980    24.053190    -47.048504    -14.766294    -7.469328    0.170832    -2.697275    -9.529990    9.538952    -0.366134    15.495196    -1.072812    -7.914711    114.884048    2.165754    -1.246535    14.976391    0.947627    7.269688    4.293695    -11.160838    -17.177031    -15.758849    -3.305297    23.375366    -102.794968    9.233818    8.062346    2.587989    11.037020    17.624250    -3.637079    -4.332579    8.079986    -4.087216    0.821439    4.220594    6.713085    12.246683    4.858599    1.509299    -6.471092    3.258701    -7.595279    -7.705139    -19.059376    
12.591475    91.981522    -4.690518    4.454318    -1.429292    171.676025    1.341850    -5.461316    1.887958    9.166138    47.190777    -29.458075    24.395218    -47.021427    -14.771948    -7.542168    0.194039    -2.653158    -9.426054    9.925645    -0.453346    15.561375    -1.081942    -7.797719    114.922638    2.173579    -0.974109    14.966836    0.974613    7.246095    4.196193    -11.251775    -17.221537    -15.662139    -3.263475    23.465567    -102.810905    9.215440    8.137540    2.632894    11.064241    17.700676    -3.647275    -4.311733    7.891922    -3.886936    0.857515    4.217201    6.746485    12.286678    4.842140    1.517400    -6.482499    3.286455    -7.611088    -7.677274    -19.100672    
12.591475    91.981522    -4.690518    4.454308    -1.429308    171.676010    1.347321    -5.459362    1.888466    9.094690    47.186718    -29.413563    24.380013    -46.974953    -14.713943    -7.548065    0.166305    -2.619124    -9.425701    9.947185    -0.461148    15.567762    -1.062849    -7.788325    114.918953    2.197693    -0.913670    14.963544    0.945991    7.273234    4.191009    -11.219353    -17.206648    -15.637974    -3.274573    23.432348    -102.831696    9.219395    8.105008    2.632888    11.064238    17.700691    -3.647282    -4.311753    7.891932    -3.886935    0.857526    4.217183    6.746475    12.286655    4.842129    1.517398    -6.482484    3.286456    -7.611136    -7.677338    -19.100645    
12.570034    91.983795    -4.678690    4.402258    -1.469494    171.679535    1.268163    -5.522597    1.884285    9.179140    47.285019    -29.484272    24.487041    -47.084835    -14.662365    -7.489811    0.183426    -2.651695    -9.455921    9.837300    -0.409248    15.567392    -1.082767    -7.865977    114.785286    2.248155    -0.994462    15.016904    0.987347    7.282860    4.166197    -11.227106    -17.182587    -15.665682    -3.256069    23.421001    -102.816864    9.237682    8.118997    2.559618    10.994321    17.625277    -3.632476    -4.299829    8.060352    -3.961766    0.772894    4.183372    6.678518    12.220330    4.842308    1.538819    -6.459033    3.224948    -7.663522    -7.716766    -19.019428    
12.559849    91.983200    -4.677239    4.393221    -1.457742    171.695496    1.252882    -5.482148    1.843911    9.131222    47.169678    -29.431843    24.397741    -47.012783    -14.684045    -7.320425    0.147565    -2.658623    -9.729235    9.852000    -0.401575    15.723863    -1.104312    -7.817003    114.606293    2.341470    -0.943658    14.959885    0.951843    7.308123    4.228805    -11.262961    -17.175842    -15.647689    -3.278779    23.390356    -102.839546    9.221961    8.112979    2.552424    11.006109    17.702887    -3.636686    -4.308817    7.903363    -3.916818    0.869265    4.204679    6.667378    12.233121    4.804611    1.541054    -6.471205    3.280551    -7.599550    -7.691011    -19.115345    
12.555756    91.986107    -4.678675    4.414231    -1.427648    171.721725    1.224506    -5.501858    1.824110    9.182882    47.157730    -29.417059    24.179842    -46.865410    -14.760553    -7.246665    0.163903    -2.721536    -9.779914    9.609097    -0.293881    15.688170    -1.099378    -7.928295    114.625557    2.228740    -1.295480    15.042029    1.002310    7.364845    4.153077    -11.300361    -17.268040    -15.667753    -3.265898    23.451286    -102.780891    9.222977    8.242270    2.568565    11.036276    17.680836    -3.627641    -4.303813    7.825436    -3.922919    0.856748    4.266298    6.689791    12.251721    4.807973    1.543991    -6.437475    3.256732    -7.672611    -7.724393    -19.111629    
12.542108    91.984673    -4.670317    4.421446    -1.424252    171.716949    1.309792    -5.435815    1.918912    9.175315    47.123348    -29.414190    24.228336    -46.983791    -14.748020    -7.230365    0.191137    -2.719914    -9.880803    9.597387    -0.398404    15.755177    -1.108702    -7.917933    114.761703    2.524211    -1.277297    14.954595    0.971093    7.327145    4.155535    -11.344359    -17.242640    -15.624029    -3.277453    23.459707    -102.847900    9.291239    8.195022    2.571549    11.024932    17.708450    -3.644017    -4.288007    7.975824    -3.834109    0.804153    4.106809    6.676213    12.241902    4.798424    1.557558    -6.421552    3.317248    -7.655602    -7.731266    -19.110924    
12.532995    91.984810    -4.660647    4.423134    -1.429960    171.738342    1.317601    -5.468852    1.925866    9.162253    47.095055    -29.430262    24.157557    -46.849358    -14.852923    -7.194428    0.145112    -2.820010    -9.902143    9.663299    -0.389873    15.752378    -1.080069    -7.881636    114.946953    2.477795    -1.249732    14.927987    0.967681    7.288526    4.195831    -11.403670    -17.275387    -15.656108    -3.254004    23.472466    -102.859833    9.234939    8.223546    2.577888    11.003242    17.713797    -3.647308    -4.257949    7.725393    -3.946743    0.762493    4.320922    6.678074    12.222615    4.796472    1.552041    -6.405247    3.340194    -7.650600    -7.723774    -19.141230    
12.529306    91.988579    -4.651440    4.429931    -1.421067    171.744476    1.328970    -5.427591    1.891040    9.088058    47.030682    -29.372591    24.169436    -46.772457    -14.829316    -7.118177    0.180974    -2.810838    -10.017269    9.761575    -0.378155    15.711905    -1.109007    -8.042346    114.682899    2.938597    -1.457132    14.952296    0.930909    7.319863    4.113986    -11.404900    -17.293056    -15.698675    -3.272458    23.468124    -102.414047    9.303593    8.370188    2.578540    11.004130    17.678970    -3.641440    -4.272089    7.922590    -3.948581    0.823013    4.183470    6.687755    12.206129    4.769774    1.567822    -6.392855    3.138447    -7.631086    -7.732014    -18.998013    
12.519789    91.995827    -4.645810    4.411994    -1.419357    171.750641    1.323028    -5.401247    1.902418    9.017832    46.975674    -29.326769    24.170166    -46.727871    -14.835940    -7.110064    0.146271    -2.811702    -9.981136    9.742781    -0.397523    15.699435    -1.135498    -8.060380    114.460434    2.979074    -1.341990    14.937833    0.957259    7.301247    4.139694    -11.409554    -17.211824    -15.732963    -3.287300    23.412277    -102.433701    9.250805    8.477905    2.562968    11.010382    17.646490    -3.661192    -4.289423    7.851723    -3.900209    0.787883    4.303764    6.661428    12.194193    4.742129    1.562929    -6.354937    3.299731    -7.578300    -7.759874    -19.091150    
12.511158    91.995224    -4.644710    4.421198    -1.380681    171.779694    1.294121    -5.349105    1.868471    9.019474    46.981838    -29.326727    24.229950    -46.684864    -14.814432    -7.115882    0.186169    -2.814966    -9.855880    9.670400    -0.477544    15.621713    -1.124523    -8.017489    114.528969    2.828301    -1.472208    14.994549    0.944559    7.256306    4.144649    -11.254850    -17.148798    -15.697582    -3.234719    23.311104    -102.502266    9.077296    7.912190    2.562626    11.048612    17.637840    -3.639564    -4.308387    7.816176    -3.863915    0.869545    4.268919    6.665486    12.239590    4.772918    1.567729    -6.384145    3.148872    -7.601314    -7.734666    -19.028166    
12.505052    91.997726    -4.640164    4.419781    -1.378268    171.772369    1.331407    -5.335979    1.867467    8.400668    46.738419    -29.055914    24.477642    -46.073860    -14.993477    -7.275885    0.165862    -2.696382    -9.574370    9.915056    -0.617267    15.571856    -1.089259    -7.998439    114.427681    3.036877    -1.208125    14.969981    0.975962    7.310273    4.105722    -11.299796    -17.185621    -15.692861    -3.269997    23.318718    -102.426720    8.992007    7.998817    2.561021    11.044394    17.688448    -3.649194    -4.302502    7.846990    -3.883628    0.887613    4.172008    6.658585    12.223911    4.753071    1.581176    -6.351182    3.256433    -7.674454    -7.747593    -19.110723    
12.493700    92.000130    -4.640652    4.407830    -1.358825    171.785645    1.302287    -5.314882    1.860462    8.454613    46.754883    -29.089497    24.399204    -46.022552    -14.933160    -7.179566    0.161291    -2.736835    -9.742245    9.859599    -0.573166    15.783563    -1.098777    -7.865724    114.833969    2.334607    -1.297301    14.940230    0.943935    7.326509    4.132195    -11.395063    -17.246311    -15.628204    -3.263659    23.412409    -102.419960    9.048021    8.056020    2.546372    11.068591    17.644537    -3.661941    -4.324652    7.918120    -3.845493    0.917366    4.139099    6.636961    12.257389    4.804278    1.563120    -6.382926    3.181937    -7.666835    -7.714803    -19.053068    
